<mxfile host="app.diagrams.net" modified="2022-11-29T17:18:43.460Z" agent="5.0 (X11)" etag="ogwYN4a0h5xHlAWBzFvw" version="20.5.3" type="github" pages="2">
  <diagram id="prtHgNgQTEPvFCAcTncT" name="Page-1">
    <mxGraphModel dx="6992" dy="3798" grid="1" gridSize="10" guides="1" tooltips="1" connect="1" arrows="1" fold="1" page="1" pageScale="1" pageWidth="827" pageHeight="1169" math="0" shadow="0">
      <root>
        <mxCell id="0" />
        <mxCell id="1" parent="0" />
        <mxCell id="-uMLt3uFbst9-DU3asHZ-1" value="&lt;div&gt;&lt;br&gt;&lt;/div&gt;" style="text;html=1;align=center;verticalAlign=middle;resizable=0;points=[];autosize=1;strokeColor=none;fillColor=none;" parent="1" vertex="1">
          <mxGeometry x="330" y="183" width="20" height="30" as="geometry" />
        </mxCell>
        <mxCell id="b1TLpH0DYaXF8-X6dO7h-69" style="edgeStyle=orthogonalEdgeStyle;curved=1;rounded=0;orthogonalLoop=1;jettySize=auto;html=1;entryX=0.5;entryY=0;entryDx=0;entryDy=0;strokeWidth=3;fontSize=16;" parent="1" source="-uMLt3uFbst9-DU3asHZ-4" target="-uMLt3uFbst9-DU3asHZ-7" edge="1">
          <mxGeometry relative="1" as="geometry" />
        </mxCell>
        <mxCell id="-uMLt3uFbst9-DU3asHZ-4" value="&lt;font style=&quot;font-size: 23px;&quot;&gt;Study Any Metabolism&lt;br&gt;&lt;/font&gt;" style="text;html=1;strokeColor=none;fillColor=none;align=center;verticalAlign=middle;whiteSpace=wrap;rounded=0;" parent="1" vertex="1">
          <mxGeometry x="319" y="113" width="180" height="75" as="geometry" />
        </mxCell>
        <mxCell id="b1TLpH0DYaXF8-X6dO7h-96" style="edgeStyle=orthogonalEdgeStyle;curved=1;rounded=0;orthogonalLoop=1;jettySize=auto;html=1;strokeWidth=3;fontSize=23;fillColor=#6d8764;strokeColor=#3A5431;" parent="1" source="-uMLt3uFbst9-DU3asHZ-7" target="b1TLpH0DYaXF8-X6dO7h-84" edge="1">
          <mxGeometry relative="1" as="geometry">
            <mxPoint x="340" y="290" as="sourcePoint" />
            <Array as="points" />
          </mxGeometry>
        </mxCell>
        <mxCell id="b1TLpH0DYaXF8-X6dO7h-103" style="edgeStyle=orthogonalEdgeStyle;curved=1;rounded=0;orthogonalLoop=1;jettySize=auto;html=1;exitX=0.75;exitY=1;exitDx=0;exitDy=0;strokeWidth=3;fontSize=23;fillColor=#6d8764;strokeColor=#3A5431;" parent="1" source="-uMLt3uFbst9-DU3asHZ-7" target="b1TLpH0DYaXF8-X6dO7h-85" edge="1">
          <mxGeometry relative="1" as="geometry" />
        </mxCell>
        <mxCell id="sFF2S7-PHeseh_3p-4S--3" style="edgeStyle=orthogonalEdgeStyle;curved=1;orthogonalLoop=1;jettySize=auto;html=1;exitX=0.25;exitY=1;exitDx=0;exitDy=0;strokeWidth=3;fillColor=#6d8764;strokeColor=#3A5431;" parent="1" source="-uMLt3uFbst9-DU3asHZ-7" target="b1TLpH0DYaXF8-X6dO7h-87" edge="1">
          <mxGeometry relative="1" as="geometry" />
        </mxCell>
        <mxCell id="-uMLt3uFbst9-DU3asHZ-7" value="&lt;div&gt;You run:&lt;/div&gt;&lt;div style=&quot;font-size: 23px;&quot;&gt;dram2&lt;br&gt;&lt;/div&gt;" style="rounded=0;whiteSpace=wrap;html=1;fillColor=#6d8764;fontColor=#ffffff;strokeColor=#3A5431;" parent="1" vertex="1">
          <mxGeometry x="350" y="228" width="117" height="42" as="geometry" />
        </mxCell>
        <mxCell id="b1TLpH0DYaXF8-X6dO7h-2" value="&lt;div&gt;&lt;b&gt;/&amp;gt;dram2 --version&lt;br&gt;&lt;/b&gt;&lt;/div&gt;" style="rounded=1;whiteSpace=wrap;html=1;fillColor=#647687;fontColor=#ffffff;strokeColor=#314354;" parent="1" vertex="1">
          <mxGeometry x="-100" y="440" width="160" height="30" as="geometry" />
        </mxCell>
        <mxCell id="b1TLpH0DYaXF8-X6dO7h-52" style="edgeStyle=orthogonalEdgeStyle;curved=1;rounded=0;orthogonalLoop=1;jettySize=auto;html=1;exitX=0.5;exitY=1;exitDx=0;exitDy=0;entryX=0.5;entryY=0;entryDx=0;entryDy=0;strokeWidth=3;fontSize=16;fillColor=#647687;strokeColor=#314354;" parent="1" source="b1TLpH0DYaXF8-X6dO7h-13" target="b1TLpH0DYaXF8-X6dO7h-2" edge="1">
          <mxGeometry relative="1" as="geometry" />
        </mxCell>
        <mxCell id="b1TLpH0DYaXF8-X6dO7h-13" value="&lt;font style=&quot;font-size: 23px;&quot;&gt;&lt;b&gt;&lt;font style=&quot;font-size: 23px;&quot;&gt;Get info&lt;br&gt;&lt;/font&gt;&lt;/b&gt;&lt;/font&gt;" style="text;html=1;strokeColor=none;fillColor=none;align=center;verticalAlign=middle;whiteSpace=wrap;rounded=0;" parent="1" vertex="1">
          <mxGeometry x="50" y="250" width="132" height="52" as="geometry" />
        </mxCell>
        <mxCell id="b1TLpH0DYaXF8-X6dO7h-73" value="&lt;div align=&quot;left&quot;&gt;&lt;b&gt;/&amp;gt; dram2 annotate&lt;/b&gt;&lt;br&gt;&lt;/div&gt;&lt;ul&gt;&lt;li&gt; --called for called genes&lt;/li&gt;&lt;li&gt;--add_to to add to annotations in directory &lt;/li&gt;&lt;li&gt;-- Inclued trees&lt;br&gt;&lt;/li&gt;&lt;/ul&gt;" style="rounded=1;whiteSpace=wrap;html=1;fillColor=#6d8764;fontColor=#ffffff;strokeColor=#3A5431;align=left;" parent="1" vertex="1">
          <mxGeometry x="318" y="491" width="240" height="131" as="geometry" />
        </mxCell>
        <mxCell id="b1TLpH0DYaXF8-X6dO7h-75" value="&lt;div&gt;&lt;b&gt;/&amp;gt; DRAM.py distill&lt;/b&gt;&lt;/div&gt;&lt;div&gt;&lt;b&gt;--use viral for viral&lt;/b&gt;&lt;/div&gt;&lt;div&gt;&lt;b&gt;--use methyl for methyl&lt;br&gt;&lt;/b&gt;&lt;/div&gt;" style="rounded=1;whiteSpace=wrap;html=1;fillColor=#6d8764;fontColor=#ffffff;strokeColor=#3A5431;" parent="1" vertex="1">
          <mxGeometry x="638.75" y="834" width="182.25" height="72" as="geometry" />
        </mxCell>
        <mxCell id="b1TLpH0DYaXF8-X6dO7h-76" value="&lt;b&gt;/&amp;gt; dram2 strain&lt;br&gt;&lt;/b&gt;" style="rounded=1;whiteSpace=wrap;html=1;fillColor=#6d8764;fontColor=#ffffff;strokeColor=#3A5431;" parent="1" vertex="1">
          <mxGeometry x="222" y="690" width="125" height="28" as="geometry" />
        </mxCell>
        <mxCell id="b1TLpH0DYaXF8-X6dO7h-77" value="&lt;b&gt;/&amp;gt; dram2 neighboor&lt;/b&gt;" style="rounded=1;whiteSpace=wrap;html=1;fillColor=#6d8764;fontColor=#ffffff;strokeColor=#3A5431;" parent="1" vertex="1">
          <mxGeometry x="-107.5" y="690" width="175" height="28" as="geometry" />
        </mxCell>
        <mxCell id="b1TLpH0DYaXF8-X6dO7h-78" value="&lt;b&gt;/&amp;gt; dram2 merge&lt;/b&gt;" style="rounded=1;whiteSpace=wrap;html=1;fillColor=#6d8764;fontColor=#ffffff;strokeColor=#3A5431;" parent="1" vertex="1">
          <mxGeometry x="59.5" y="646" width="195" height="28" as="geometry" />
        </mxCell>
        <mxCell id="b1TLpH0DYaXF8-X6dO7h-84" value="&lt;font style=&quot;font-size: 23px;&quot;&gt;&lt;b&gt;Annotate&lt;/b&gt;&lt;/font&gt;" style="text;html=1;strokeColor=none;fillColor=none;align=center;verticalAlign=middle;whiteSpace=wrap;rounded=0;fontSize=16;" parent="1" vertex="1">
          <mxGeometry x="377.75" y="375" width="106" height="33" as="geometry" />
        </mxCell>
        <mxCell id="b1TLpH0DYaXF8-X6dO7h-104" style="edgeStyle=orthogonalEdgeStyle;curved=1;rounded=0;orthogonalLoop=1;jettySize=auto;html=1;exitX=0.5;exitY=1;exitDx=0;exitDy=0;strokeWidth=3;fontSize=23;fillColor=#6d8764;strokeColor=#3A5431;entryX=0.5;entryY=0;entryDx=0;entryDy=0;" parent="1" source="7wph3iyhROoM2G9qRR0j-6" target="7wph3iyhROoM2G9qRR0j-13" edge="1">
          <mxGeometry relative="1" as="geometry">
            <Array as="points">
              <mxPoint x="591" y="490" />
              <mxPoint x="610" y="490" />
            </Array>
          </mxGeometry>
        </mxCell>
        <mxCell id="b1TLpH0DYaXF8-X6dO7h-108" style="edgeStyle=orthogonalEdgeStyle;curved=1;rounded=0;orthogonalLoop=1;jettySize=auto;html=1;exitX=0.75;exitY=1;exitDx=0;exitDy=0;strokeWidth=3;fontSize=23;fillColor=#6d8764;strokeColor=#3A5431;" parent="1" source="b1TLpH0DYaXF8-X6dO7h-87" target="b1TLpH0DYaXF8-X6dO7h-93" edge="1">
          <mxGeometry relative="1" as="geometry" />
        </mxCell>
        <mxCell id="b1TLpH0DYaXF8-X6dO7h-85" value="&lt;div&gt;&lt;font style=&quot;font-size: 23px;&quot;&gt;&lt;b&gt;Understand&lt;/b&gt;&lt;/font&gt;&lt;/div&gt;You must first annotate" style="text;html=1;strokeColor=none;fillColor=none;align=center;verticalAlign=middle;whiteSpace=wrap;rounded=0;fontSize=16;" parent="1" vertex="1">
          <mxGeometry x="643" y="354" width="165" height="62" as="geometry" />
        </mxCell>
        <mxCell id="b1TLpH0DYaXF8-X6dO7h-101" style="edgeStyle=orthogonalEdgeStyle;curved=1;rounded=0;orthogonalLoop=1;jettySize=auto;html=1;exitX=0.5;exitY=1;exitDx=0;exitDy=0;strokeWidth=3;fontSize=23;fillColor=#6d8764;strokeColor=#3A5431;" parent="1" source="b1TLpH0DYaXF8-X6dO7h-87" target="b1TLpH0DYaXF8-X6dO7h-94" edge="1">
          <mxGeometry relative="1" as="geometry" />
        </mxCell>
        <mxCell id="sFF2S7-PHeseh_3p-4S--2" style="edgeStyle=orthogonalEdgeStyle;orthogonalLoop=1;jettySize=auto;html=1;exitX=0.25;exitY=1;exitDx=0;exitDy=0;entryX=0.5;entryY=0;entryDx=0;entryDy=0;curved=1;strokeWidth=3;fillColor=#6d8764;strokeColor=#3A5431;" parent="1" source="b1TLpH0DYaXF8-X6dO7h-87" target="b1TLpH0DYaXF8-X6dO7h-92" edge="1">
          <mxGeometry relative="1" as="geometry" />
        </mxCell>
        <mxCell id="b1TLpH0DYaXF8-X6dO7h-87" value="&lt;b&gt;Manipulate&lt;/b&gt;" style="text;html=1;strokeColor=none;fillColor=none;align=center;verticalAlign=middle;whiteSpace=wrap;rounded=0;fontSize=23;" parent="1" vertex="1">
          <mxGeometry x="92" y="380" width="130" height="41" as="geometry" />
        </mxCell>
        <mxCell id="b1TLpH0DYaXF8-X6dO7h-107" style="edgeStyle=orthogonalEdgeStyle;curved=1;rounded=0;orthogonalLoop=1;jettySize=auto;html=1;exitX=0.5;exitY=1;exitDx=0;exitDy=0;entryX=0.5;entryY=0;entryDx=0;entryDy=0;strokeWidth=3;fontSize=23;fillColor=#6d8764;strokeColor=#3A5431;" parent="1" target="b1TLpH0DYaXF8-X6dO7h-75" edge="1">
          <mxGeometry relative="1" as="geometry">
            <Array as="points">
              <mxPoint x="697" y="803" />
              <mxPoint x="730" y="803" />
            </Array>
            <mxPoint x="696.75" y="769" as="sourcePoint" />
          </mxGeometry>
        </mxCell>
        <mxCell id="b1TLpH0DYaXF8-X6dO7h-88" value="&lt;div align=&quot;center&quot;&gt;Summarize metabolic content&lt;br&gt;&lt;/div&gt;" style="text;whiteSpace=wrap;html=1;fontSize=16;align=center;" parent="1" vertex="1">
          <mxGeometry x="641.75" y="698" width="110" height="70" as="geometry" />
        </mxCell>
        <mxCell id="b1TLpH0DYaXF8-X6dO7h-106" style="edgeStyle=orthogonalEdgeStyle;curved=1;rounded=0;orthogonalLoop=1;jettySize=auto;html=1;exitX=0.5;exitY=1;exitDx=0;exitDy=0;strokeWidth=3;fontSize=23;fillColor=#6d8764;strokeColor=#3A5431;" parent="1" source="b1TLpH0DYaXF8-X6dO7h-92" edge="1">
          <mxGeometry relative="1" as="geometry">
            <mxPoint x="-28" y="690" as="targetPoint" />
          </mxGeometry>
        </mxCell>
        <mxCell id="b1TLpH0DYaXF8-X6dO7h-92" value="&lt;div align=&quot;center&quot;&gt;Extract around genes of interest&lt;/div&gt;" style="text;whiteSpace=wrap;html=1;fontSize=16;align=center;" parent="1" vertex="1">
          <mxGeometry x="-28" y="545" width="120" height="60" as="geometry" />
        </mxCell>
        <mxCell id="b1TLpH0DYaXF8-X6dO7h-109" style="edgeStyle=orthogonalEdgeStyle;curved=1;rounded=0;orthogonalLoop=1;jettySize=auto;html=1;strokeWidth=3;fontSize=23;fillColor=#6d8764;strokeColor=#3A5431;" parent="1" source="b1TLpH0DYaXF8-X6dO7h-93" target="b1TLpH0DYaXF8-X6dO7h-76" edge="1">
          <mxGeometry relative="1" as="geometry" />
        </mxCell>
        <mxCell id="b1TLpH0DYaXF8-X6dO7h-93" value="&lt;div align=&quot;center&quot;&gt;Extract genes of interest&lt;/div&gt;" style="text;whiteSpace=wrap;html=1;fontSize=16;align=center;" parent="1" vertex="1">
          <mxGeometry x="182" y="470" width="120" height="47" as="geometry" />
        </mxCell>
        <mxCell id="b1TLpH0DYaXF8-X6dO7h-102" style="edgeStyle=orthogonalEdgeStyle;curved=1;rounded=0;orthogonalLoop=1;jettySize=auto;html=1;strokeWidth=3;fontSize=23;fillColor=#6d8764;strokeColor=#3A5431;" parent="1" source="b1TLpH0DYaXF8-X6dO7h-94" target="b1TLpH0DYaXF8-X6dO7h-78" edge="1">
          <mxGeometry relative="1" as="geometry" />
        </mxCell>
        <mxCell id="b1TLpH0DYaXF8-X6dO7h-94" value="&lt;div align=&quot;center&quot;&gt;Merge multiple annotations&lt;/div&gt;" style="text;whiteSpace=wrap;html=1;fontSize=16;align=center;" parent="1" vertex="1">
          <mxGeometry x="97" y="538" width="120" height="47" as="geometry" />
        </mxCell>
        <mxCell id="7wph3iyhROoM2G9qRR0j-5" style="edgeStyle=orthogonalEdgeStyle;curved=1;rounded=0;orthogonalLoop=1;jettySize=auto;html=1;strokeWidth=3;fontSize=23;fillColor=#6d8764;strokeColor=#3A5431;exitX=0.5;exitY=1;exitDx=0;exitDy=0;" edge="1" parent="1" source="b1TLpH0DYaXF8-X6dO7h-84">
          <mxGeometry relative="1" as="geometry">
            <mxPoint x="418.5" y="280" as="sourcePoint" />
            <Array as="points">
              <mxPoint x="431" y="440" />
              <mxPoint x="420" y="440" />
            </Array>
            <mxPoint x="420" y="490" as="targetPoint" />
          </mxGeometry>
        </mxCell>
        <mxCell id="7wph3iyhROoM2G9qRR0j-6" value="&lt;font style=&quot;font-size: 23px;&quot;&gt;&lt;b&gt;Supliment&lt;/b&gt;&lt;/font&gt;" style="text;html=1;strokeColor=none;fillColor=none;align=center;verticalAlign=middle;whiteSpace=wrap;rounded=0;fontSize=16;" vertex="1" parent="1">
          <mxGeometry x="538" y="415" width="106" height="33" as="geometry" />
        </mxCell>
        <mxCell id="7wph3iyhROoM2G9qRR0j-7" style="edgeStyle=orthogonalEdgeStyle;curved=1;rounded=0;orthogonalLoop=1;jettySize=auto;html=1;strokeWidth=3;fontSize=23;fillColor=#6d8764;strokeColor=#3A5431;entryX=0.5;entryY=0;entryDx=0;entryDy=0;" edge="1" parent="1" source="-uMLt3uFbst9-DU3asHZ-7" target="7wph3iyhROoM2G9qRR0j-6">
          <mxGeometry relative="1" as="geometry">
            <mxPoint x="418.5" y="280" as="sourcePoint" />
            <Array as="points">
              <mxPoint x="419" y="340" />
              <mxPoint x="591" y="340" />
            </Array>
            <mxPoint x="414" y="385" as="targetPoint" />
          </mxGeometry>
        </mxCell>
        <mxCell id="7wph3iyhROoM2G9qRR0j-8" value="&lt;div align=&quot;left&quot;&gt;&lt;b&gt;/&amp;gt; dram2 genbank&lt;/b&gt;&lt;br&gt;&lt;/div&gt;" style="rounded=1;whiteSpace=wrap;html=1;fillColor=#6d8764;fontColor=#ffffff;strokeColor=#3A5431;align=left;" vertex="1" parent="1">
          <mxGeometry x="444" y="669" width="140" height="28" as="geometry" />
        </mxCell>
        <mxCell id="7wph3iyhROoM2G9qRR0j-9" value="&lt;div align=&quot;left&quot;&gt;&lt;b&gt;/&amp;gt; dram2 trna&lt;/b&gt;&lt;br&gt;&lt;/div&gt;" style="rounded=1;whiteSpace=wrap;html=1;fillColor=#6d8764;fontColor=#ffffff;strokeColor=#3A5431;align=left;" vertex="1" parent="1">
          <mxGeometry x="327" y="780" width="140" height="30" as="geometry" />
        </mxCell>
        <mxCell id="7wph3iyhROoM2G9qRR0j-10" value="&lt;div align=&quot;left&quot;&gt;&lt;b&gt;/&amp;gt; dram2 rrna&lt;/b&gt;&lt;br&gt;&lt;/div&gt;" style="rounded=1;whiteSpace=wrap;html=1;fillColor=#6d8764;fontColor=#ffffff;strokeColor=#3A5431;align=left;" vertex="1" parent="1">
          <mxGeometry x="467" y="823" width="140" height="30" as="geometry" />
        </mxCell>
        <mxCell id="7wph3iyhROoM2G9qRR0j-13" value="&lt;div align=&quot;center&quot;&gt;Get Genbank&lt;br&gt;&lt;/div&gt;" style="text;whiteSpace=wrap;html=1;fontSize=16;align=center;" vertex="1" parent="1">
          <mxGeometry x="560" y="526" width="100" height="53" as="geometry" />
        </mxCell>
        <mxCell id="7wph3iyhROoM2G9qRR0j-14" value="&lt;div align=&quot;center&quot;&gt;Get RRNA and TRNA&lt;br&gt;&lt;/div&gt;" style="text;whiteSpace=wrap;html=1;fontSize=16;align=center;" vertex="1" parent="1">
          <mxGeometry x="507" y="719" width="100" height="53" as="geometry" />
        </mxCell>
        <mxCell id="7wph3iyhROoM2G9qRR0j-15" style="edgeStyle=orthogonalEdgeStyle;curved=1;rounded=0;orthogonalLoop=1;jettySize=auto;html=1;exitX=0.5;exitY=1;exitDx=0;exitDy=0;strokeWidth=3;fontSize=23;fillColor=#6d8764;strokeColor=#3A5431;entryX=0.5;entryY=0;entryDx=0;entryDy=0;" edge="1" parent="1" target="b1TLpH0DYaXF8-X6dO7h-88">
          <mxGeometry relative="1" as="geometry">
            <Array as="points">
              <mxPoint x="736" y="508" />
              <mxPoint x="700" y="508" />
              <mxPoint x="700" y="670" />
              <mxPoint x="697" y="670" />
            </Array>
            <mxPoint x="735.5" y="426" as="sourcePoint" />
            <mxPoint x="807" y="626" as="targetPoint" />
          </mxGeometry>
        </mxCell>
        <mxCell id="7wph3iyhROoM2G9qRR0j-16" style="edgeStyle=orthogonalEdgeStyle;curved=1;rounded=0;orthogonalLoop=1;jettySize=auto;html=1;strokeWidth=3;fontSize=23;fillColor=#6d8764;strokeColor=#3A5431;exitX=0.75;exitY=1;exitDx=0;exitDy=0;entryX=0.5;entryY=0;entryDx=0;entryDy=0;" edge="1" parent="1" source="7wph3iyhROoM2G9qRR0j-6" target="7wph3iyhROoM2G9qRR0j-14">
          <mxGeometry relative="1" as="geometry">
            <Array as="points">
              <mxPoint x="620" y="448" />
              <mxPoint x="620" y="518" />
              <mxPoint x="680" y="518" />
              <mxPoint x="680" y="680" />
              <mxPoint x="557" y="680" />
            </Array>
            <mxPoint x="745.5" y="436" as="sourcePoint" />
            <mxPoint x="817" y="636" as="targetPoint" />
          </mxGeometry>
        </mxCell>
        <mxCell id="7wph3iyhROoM2G9qRR0j-18" style="edgeStyle=orthogonalEdgeStyle;curved=1;rounded=0;orthogonalLoop=1;jettySize=auto;html=1;strokeWidth=3;fontSize=23;fillColor=#6d8764;strokeColor=#3A5431;entryX=0.5;entryY=0;entryDx=0;entryDy=0;" edge="1" parent="1" source="7wph3iyhROoM2G9qRR0j-13" target="7wph3iyhROoM2G9qRR0j-8">
          <mxGeometry relative="1" as="geometry">
            <Array as="points">
              <mxPoint x="590" y="640" />
              <mxPoint x="514" y="640" />
            </Array>
            <mxPoint x="590" y="605" as="sourcePoint" />
            <mxPoint x="609" y="680" as="targetPoint" />
          </mxGeometry>
        </mxCell>
        <mxCell id="7wph3iyhROoM2G9qRR0j-19" style="edgeStyle=orthogonalEdgeStyle;curved=1;rounded=0;orthogonalLoop=1;jettySize=auto;html=1;strokeWidth=3;fontSize=23;fillColor=#6d8764;strokeColor=#3A5431;entryX=0.5;entryY=0;entryDx=0;entryDy=0;" edge="1" parent="1" source="7wph3iyhROoM2G9qRR0j-14" target="7wph3iyhROoM2G9qRR0j-9">
          <mxGeometry relative="1" as="geometry">
            <Array as="points">
              <mxPoint x="487" y="746" />
              <mxPoint x="487" y="750" />
              <mxPoint x="397" y="750" />
            </Array>
            <mxPoint x="435" y="815" as="sourcePoint" />
            <mxPoint x="359" y="905" as="targetPoint" />
          </mxGeometry>
        </mxCell>
        <mxCell id="7wph3iyhROoM2G9qRR0j-22" value="&lt;div&gt;&lt;b&gt;/&amp;gt; dram2 adjective &lt;/b&gt;&lt;/div&gt;" style="rounded=1;whiteSpace=wrap;html=1;fillColor=#6d8764;fontColor=#ffffff;strokeColor=#3A5431;" vertex="1" parent="1">
          <mxGeometry x="758.75" y="744" width="148.25" height="29" as="geometry" />
        </mxCell>
        <mxCell id="7wph3iyhROoM2G9qRR0j-23" style="edgeStyle=orthogonalEdgeStyle;curved=1;rounded=0;orthogonalLoop=1;jettySize=auto;html=1;entryX=0.5;entryY=0;entryDx=0;entryDy=0;strokeWidth=3;fontSize=23;fillColor=#6d8764;strokeColor=#3A5431;" edge="1" parent="1" source="7wph3iyhROoM2G9qRR0j-24" target="7wph3iyhROoM2G9qRR0j-22">
          <mxGeometry relative="1" as="geometry">
            <Array as="points">
              <mxPoint x="780" y="712" />
              <mxPoint x="833" y="712" />
            </Array>
            <mxPoint x="816.75" y="678" as="sourcePoint" />
          </mxGeometry>
        </mxCell>
        <mxCell id="7wph3iyhROoM2G9qRR0j-24" value="&lt;div align=&quot;center&quot;&gt;Describe with adjectives&lt;br&gt;&lt;/div&gt;" style="text;whiteSpace=wrap;html=1;fontSize=16;align=center;" vertex="1" parent="1">
          <mxGeometry x="711" y="585" width="110" height="70" as="geometry" />
        </mxCell>
        <mxCell id="7wph3iyhROoM2G9qRR0j-25" style="edgeStyle=orthogonalEdgeStyle;curved=1;rounded=0;orthogonalLoop=1;jettySize=auto;html=1;exitX=0.75;exitY=1;exitDx=0;exitDy=0;strokeWidth=3;fontSize=23;fillColor=#6d8764;strokeColor=#3A5431;" edge="1" parent="1" source="b1TLpH0DYaXF8-X6dO7h-85" target="7wph3iyhROoM2G9qRR0j-24">
          <mxGeometry relative="1" as="geometry">
            <Array as="points">
              <mxPoint x="767" y="470" />
              <mxPoint x="760" y="470" />
            </Array>
            <mxPoint x="855.5" y="336" as="sourcePoint" />
            <mxPoint x="927" y="536" as="targetPoint" />
          </mxGeometry>
        </mxCell>
        <mxCell id="7wph3iyhROoM2G9qRR0j-30" value="&lt;div&gt;&lt;b&gt;/&amp;gt; dram2 amg_summary &lt;/b&gt;&lt;/div&gt;" style="rounded=1;whiteSpace=wrap;html=1;fillColor=#6d8764;fontColor=#ffffff;strokeColor=#3A5431;" vertex="1" parent="1">
          <mxGeometry x="858.75" y="794" width="148.25" height="29" as="geometry" />
        </mxCell>
        <mxCell id="7wph3iyhROoM2G9qRR0j-31" style="edgeStyle=orthogonalEdgeStyle;curved=1;rounded=0;orthogonalLoop=1;jettySize=auto;html=1;exitX=0.5;exitY=1;exitDx=0;exitDy=0;entryX=0.5;entryY=0;entryDx=0;entryDy=0;strokeWidth=3;fontSize=23;fillColor=#6d8764;strokeColor=#3A5431;" edge="1" parent="1" source="7wph3iyhROoM2G9qRR0j-32" target="7wph3iyhROoM2G9qRR0j-30">
          <mxGeometry relative="1" as="geometry">
            <Array as="points">
              <mxPoint x="850" y="646" />
              <mxPoint x="850" y="732" />
              <mxPoint x="933" y="732" />
            </Array>
          </mxGeometry>
        </mxCell>
        <mxCell id="7wph3iyhROoM2G9qRR0j-32" value="Get more" style="text;whiteSpace=wrap;html=1;fontSize=16;align=center;" vertex="1" parent="1">
          <mxGeometry x="808" y="602" width="95.25" height="44" as="geometry" />
        </mxCell>
        <mxCell id="7wph3iyhROoM2G9qRR0j-33" style="edgeStyle=orthogonalEdgeStyle;curved=1;rounded=0;orthogonalLoop=1;jettySize=auto;html=1;strokeWidth=3;fontSize=23;fillColor=#6d8764;strokeColor=#3A5431;exitX=0.891;exitY=0.903;exitDx=0;exitDy=0;exitPerimeter=0;" edge="1" parent="1" source="b1TLpH0DYaXF8-X6dO7h-85" target="7wph3iyhROoM2G9qRR0j-32">
          <mxGeometry relative="1" as="geometry">
            <Array as="points">
              <mxPoint x="856" y="410" />
            </Array>
            <mxPoint x="866.75" y="466" as="sourcePoint" />
            <mxPoint x="1027" y="586" as="targetPoint" />
          </mxGeometry>
        </mxCell>
        <mxCell id="7wph3iyhROoM2G9qRR0j-35" value="&lt;div&gt;&lt;b&gt;/&amp;gt;dram2 --help&lt;br&gt;&lt;/b&gt;&lt;/div&gt;" style="rounded=1;whiteSpace=wrap;html=1;fillColor=#647687;fontColor=#ffffff;strokeColor=#314354;" vertex="1" parent="1">
          <mxGeometry x="-180" y="350" width="160" height="30" as="geometry" />
        </mxCell>
        <mxCell id="7wph3iyhROoM2G9qRR0j-36" style="edgeStyle=orthogonalEdgeStyle;curved=1;rounded=0;orthogonalLoop=1;jettySize=auto;html=1;entryX=0.5;entryY=0;entryDx=0;entryDy=0;strokeWidth=3;fontSize=16;fillColor=#647687;strokeColor=#314354;" edge="1" parent="1" target="7wph3iyhROoM2G9qRR0j-35">
          <mxGeometry relative="1" as="geometry">
            <mxPoint x="90" y="290" as="sourcePoint" />
            <Array as="points">
              <mxPoint x="-100" y="300" />
            </Array>
          </mxGeometry>
        </mxCell>
        <mxCell id="7wph3iyhROoM2G9qRR0j-37" style="edgeStyle=orthogonalEdgeStyle;curved=1;rounded=0;orthogonalLoop=1;jettySize=auto;html=1;strokeWidth=3;fontSize=16;exitX=0;exitY=0.5;exitDx=0;exitDy=0;" edge="1" parent="1" source="-uMLt3uFbst9-DU3asHZ-7" target="b1TLpH0DYaXF8-X6dO7h-13">
          <mxGeometry relative="1" as="geometry">
            <mxPoint x="189.99882352941216" y="240" as="sourcePoint" />
            <mxPoint x="238.44" y="293" as="targetPoint" />
          </mxGeometry>
        </mxCell>
        <mxCell id="7wph3iyhROoM2G9qRR0j-40" value="&lt;div&gt;&lt;b&gt;/&amp;gt; dram2 genome_stats &lt;/b&gt;&lt;/div&gt;" style="rounded=1;whiteSpace=wrap;html=1;fillColor=#6d8764;fontColor=#ffffff;strokeColor=#3A5431;" vertex="1" parent="1">
          <mxGeometry x="871.75" y="853" width="148.25" height="29" as="geometry" />
        </mxCell>
        <mxCell id="7wph3iyhROoM2G9qRR0j-41" style="edgeStyle=orthogonalEdgeStyle;curved=1;rounded=0;orthogonalLoop=1;jettySize=auto;html=1;entryX=0.5;entryY=0;entryDx=0;entryDy=0;strokeWidth=3;fontSize=23;fillColor=#6d8764;strokeColor=#3A5431;" edge="1" parent="1" source="7wph3iyhROoM2G9qRR0j-32" target="7wph3iyhROoM2G9qRR0j-40">
          <mxGeometry relative="1" as="geometry">
            <Array as="points">
              <mxPoint x="919" y="624" />
              <mxPoint x="919" y="740" />
              <mxPoint x="1027" y="740" />
              <mxPoint x="1027" y="832" />
              <mxPoint x="946" y="832" />
            </Array>
            <mxPoint x="919.3749999999995" y="712" as="sourcePoint" />
            <mxPoint x="942.875" y="802.9999999999998" as="targetPoint" />
          </mxGeometry>
        </mxCell>
        <mxCell id="7wph3iyhROoM2G9qRR0j-42" style="edgeStyle=orthogonalEdgeStyle;curved=1;rounded=0;orthogonalLoop=1;jettySize=auto;html=1;exitX=0.5;exitY=1;exitDx=0;exitDy=0;strokeWidth=3;fontSize=23;fillColor=#6d8764;strokeColor=#3A5431;" edge="1" parent="1">
          <mxGeometry relative="1" as="geometry">
            <Array as="points">
              <mxPoint x="584" y="790" />
              <mxPoint x="530" y="790" />
            </Array>
            <mxPoint x="584" y="762.5" as="sourcePoint" />
            <mxPoint x="530" y="820" as="targetPoint" />
          </mxGeometry>
        </mxCell>
      </root>
    </mxGraphModel>
  </diagram>
  <diagram id="Fb26pAfEgdmVf6KJOUbw" name="Page-2">
    <mxGraphModel dx="1606" dy="1073" grid="1" gridSize="10" guides="1" tooltips="1" connect="1" arrows="1" fold="1" page="1" pageScale="1" pageWidth="850" pageHeight="1100" math="0" shadow="0">
      <root>
        <mxCell id="0" />
        <mxCell id="1" parent="0" />
      </root>
    </mxGraphModel>
  </diagram>
</mxfile>
